<mxfile host="Electron" agent="Mozilla/5.0 (Windows NT 10.0; Win64; x64) AppleWebKit/537.36 (KHTML, like Gecko) draw.io/24.7.17 Chrome/128.0.6613.36 Electron/32.0.1 Safari/537.36" version="24.7.17">
  <diagram name="Strona-1" id="sUQAcpto6n32Xw1tbFmP">
    <mxGraphModel dx="1434" dy="836" grid="1" gridSize="10" guides="1" tooltips="1" connect="1" arrows="1" fold="1" page="1" pageScale="1" pageWidth="827" pageHeight="1169" math="0" shadow="0">
      <root>
        <mxCell id="0" />
        <mxCell id="1" parent="0" />
        <mxCell id="-8ydR7LuJqTs1enXFbCZ-57" style="edgeStyle=orthogonalEdgeStyle;rounded=0;orthogonalLoop=1;jettySize=auto;html=1;" parent="1" source="-8ydR7LuJqTs1enXFbCZ-36" target="-8ydR7LuJqTs1enXFbCZ-56" edge="1">
          <mxGeometry relative="1" as="geometry" />
        </mxCell>
        <mxCell id="-8ydR7LuJqTs1enXFbCZ-36" value="START" style="points=[[0.145,0.145,0],[0.5,0,0],[0.855,0.145,0],[1,0.5,0],[0.855,0.855,0],[0.5,1,0],[0.145,0.855,0],[0,0.5,0]];shape=mxgraph.bpmn.event;html=1;verticalLabelPosition=bottom;labelBackgroundColor=#ffffff;verticalAlign=top;align=center;perimeter=ellipsePerimeter;outlineConnect=0;aspect=fixed;outline=standard;symbol=general;" parent="1" vertex="1">
          <mxGeometry x="40" y="195" width="50" height="50" as="geometry" />
        </mxCell>
        <mxCell id="-8ydR7LuJqTs1enXFbCZ-37" value="KONIEC" style="points=[[0.145,0.145,0],[0.5,0,0],[0.855,0.145,0],[1,0.5,0],[0.855,0.855,0],[0.5,1,0],[0.145,0.855,0],[0,0.5,0]];shape=mxgraph.bpmn.event;html=1;verticalLabelPosition=bottom;labelBackgroundColor=#ffffff;verticalAlign=top;align=center;perimeter=ellipsePerimeter;outlineConnect=0;aspect=fixed;outline=end;symbol=terminate2;" parent="1" vertex="1">
          <mxGeometry x="970" y="195" width="50" height="50" as="geometry" />
        </mxCell>
        <mxCell id="GfInC54N08x23x5f3HDD-1" style="edgeStyle=orthogonalEdgeStyle;rounded=0;orthogonalLoop=1;jettySize=auto;html=1;entryX=0;entryY=0.5;entryDx=0;entryDy=0;" edge="1" parent="1" source="-8ydR7LuJqTs1enXFbCZ-44" target="-8ydR7LuJqTs1enXFbCZ-61">
          <mxGeometry relative="1" as="geometry" />
        </mxCell>
        <mxCell id="-8ydR7LuJqTs1enXFbCZ-44" value="" style="rounded=1;whiteSpace=wrap;html=1;container=1;collapsible=0;absoluteArcSize=1;arcSize=20;childLayout=stackLayout;horizontal=1;horizontalStack=0;resizeParent=1;resizeParentMax=0;resizeLast=0;" parent="1" vertex="1">
          <mxGeometry x="285" y="40" width="120" height="100" as="geometry" />
        </mxCell>
        <mxCell id="-8ydR7LuJqTs1enXFbCZ-45" value="&lt;div&gt;Client&lt;/div&gt;" style="whiteSpace=wrap;connectable=0;html=1;shape=mxgraph.basic.rect;size=10;rectStyle=rounded;bottomRightStyle=square;bottomLeftStyle=square;part=1;" parent="-8ydR7LuJqTs1enXFbCZ-44" vertex="1">
          <mxGeometry width="120" height="20" as="geometry" />
        </mxCell>
        <mxCell id="-8ydR7LuJqTs1enXFbCZ-46" value="Zbierz dane urzędowe odnośnie zabudowań i inwestycji" style="shape=mxgraph.bpmn.task;part=1;taskMarker=abstract;connectable=0;whiteSpace=wrap;html=1;" parent="-8ydR7LuJqTs1enXFbCZ-44" vertex="1">
          <mxGeometry y="20" width="120" height="60" as="geometry" />
        </mxCell>
        <mxCell id="-8ydR7LuJqTs1enXFbCZ-47" value="DepartamentAgent" style="whiteSpace=wrap;connectable=0;html=1;shape=mxgraph.basic.rect;size=10;rectStyle=rounded;topRightStyle=square;topLeftStyle=square;fillColor=#C0C0C0;part=1;" parent="-8ydR7LuJqTs1enXFbCZ-44" vertex="1">
          <mxGeometry y="80" width="120" height="20" as="geometry" />
        </mxCell>
        <mxCell id="-8ydR7LuJqTs1enXFbCZ-48" value="" style="rounded=1;whiteSpace=wrap;html=1;container=1;collapsible=0;absoluteArcSize=1;arcSize=20;childLayout=stackLayout;horizontal=1;horizontalStack=0;resizeParent=1;resizeParentMax=0;resizeLast=0;" parent="1" vertex="1">
          <mxGeometry x="285" y="170" width="120" height="100" as="geometry" />
        </mxCell>
        <mxCell id="-8ydR7LuJqTs1enXFbCZ-49" value="Client" style="whiteSpace=wrap;connectable=0;html=1;shape=mxgraph.basic.rect;size=10;rectStyle=rounded;bottomRightStyle=square;bottomLeftStyle=square;part=1;" parent="-8ydR7LuJqTs1enXFbCZ-48" vertex="1">
          <mxGeometry width="120" height="20" as="geometry" />
        </mxCell>
        <mxCell id="-8ydR7LuJqTs1enXFbCZ-50" value="Zbierz dane odnośnie cen nieruchomości w okolicy" style="shape=mxgraph.bpmn.task;part=1;taskMarker=abstract;connectable=0;whiteSpace=wrap;html=1;" parent="-8ydR7LuJqTs1enXFbCZ-48" vertex="1">
          <mxGeometry y="20" width="120" height="60" as="geometry" />
        </mxCell>
        <mxCell id="-8ydR7LuJqTs1enXFbCZ-51" value="PriceAgent" style="whiteSpace=wrap;connectable=0;html=1;shape=mxgraph.basic.rect;size=10;rectStyle=rounded;topRightStyle=square;topLeftStyle=square;fillColor=#C0C0C0;part=1;" parent="-8ydR7LuJqTs1enXFbCZ-48" vertex="1">
          <mxGeometry y="80" width="120" height="20" as="geometry" />
        </mxCell>
        <mxCell id="-8ydR7LuJqTs1enXFbCZ-52" value="" style="rounded=1;whiteSpace=wrap;html=1;container=1;collapsible=0;absoluteArcSize=1;arcSize=20;childLayout=stackLayout;horizontal=1;horizontalStack=0;resizeParent=1;resizeParentMax=0;resizeLast=0;" parent="1" vertex="1">
          <mxGeometry x="285" y="310" width="120" height="100" as="geometry" />
        </mxCell>
        <mxCell id="-8ydR7LuJqTs1enXFbCZ-53" value="Client" style="whiteSpace=wrap;connectable=0;html=1;shape=mxgraph.basic.rect;size=10;rectStyle=rounded;bottomRightStyle=square;bottomLeftStyle=square;part=1;" parent="-8ydR7LuJqTs1enXFbCZ-52" vertex="1">
          <mxGeometry width="120" height="20" as="geometry" />
        </mxCell>
        <mxCell id="-8ydR7LuJqTs1enXFbCZ-54" value="Cbierz dane o opiniach usług i placówek w okolicy" style="shape=mxgraph.bpmn.task;part=1;taskMarker=abstract;connectable=0;whiteSpace=wrap;html=1;" parent="-8ydR7LuJqTs1enXFbCZ-52" vertex="1">
          <mxGeometry y="20" width="120" height="60" as="geometry" />
        </mxCell>
        <mxCell id="-8ydR7LuJqTs1enXFbCZ-55" value="ServiceOpinionAgent" style="whiteSpace=wrap;connectable=0;html=1;shape=mxgraph.basic.rect;size=10;rectStyle=rounded;topRightStyle=square;topLeftStyle=square;fillColor=#C0C0C0;part=1;" parent="-8ydR7LuJqTs1enXFbCZ-52" vertex="1">
          <mxGeometry y="80" width="120" height="20" as="geometry" />
        </mxCell>
        <mxCell id="-8ydR7LuJqTs1enXFbCZ-58" style="edgeStyle=orthogonalEdgeStyle;rounded=0;orthogonalLoop=1;jettySize=auto;html=1;entryX=0;entryY=0.5;entryDx=0;entryDy=0;exitX=0.5;exitY=0;exitDx=0;exitDy=0;exitPerimeter=0;" parent="1" source="-8ydR7LuJqTs1enXFbCZ-56" target="-8ydR7LuJqTs1enXFbCZ-44" edge="1">
          <mxGeometry relative="1" as="geometry" />
        </mxCell>
        <mxCell id="-8ydR7LuJqTs1enXFbCZ-59" style="edgeStyle=orthogonalEdgeStyle;rounded=0;orthogonalLoop=1;jettySize=auto;html=1;entryX=0;entryY=0.5;entryDx=0;entryDy=0;" parent="1" source="-8ydR7LuJqTs1enXFbCZ-56" target="-8ydR7LuJqTs1enXFbCZ-48" edge="1">
          <mxGeometry relative="1" as="geometry" />
        </mxCell>
        <mxCell id="-8ydR7LuJqTs1enXFbCZ-60" style="edgeStyle=orthogonalEdgeStyle;rounded=0;orthogonalLoop=1;jettySize=auto;html=1;entryX=0;entryY=0.5;entryDx=0;entryDy=0;exitX=0.5;exitY=1;exitDx=0;exitDy=0;exitPerimeter=0;" parent="1" source="-8ydR7LuJqTs1enXFbCZ-56" target="-8ydR7LuJqTs1enXFbCZ-52" edge="1">
          <mxGeometry relative="1" as="geometry" />
        </mxCell>
        <mxCell id="-8ydR7LuJqTs1enXFbCZ-56" value="" style="points=[[0.25,0.25,0],[0.5,0,0],[0.75,0.25,0],[1,0.5,0],[0.75,0.75,0],[0.5,1,0],[0.25,0.75,0],[0,0.5,0]];shape=mxgraph.bpmn.gateway2;html=1;verticalLabelPosition=bottom;labelBackgroundColor=#ffffff;verticalAlign=top;align=center;perimeter=rhombusPerimeter;outlineConnect=0;outline=none;symbol=none;gwType=parallel;" parent="1" vertex="1">
          <mxGeometry x="145" y="195" width="50" height="50" as="geometry" />
        </mxCell>
        <mxCell id="-8ydR7LuJqTs1enXFbCZ-85" style="edgeStyle=orthogonalEdgeStyle;rounded=0;orthogonalLoop=1;jettySize=auto;html=1;" parent="1" source="-8ydR7LuJqTs1enXFbCZ-61" target="-8ydR7LuJqTs1enXFbCZ-84" edge="1">
          <mxGeometry relative="1" as="geometry" />
        </mxCell>
        <mxCell id="-8ydR7LuJqTs1enXFbCZ-61" value="" style="rounded=1;whiteSpace=wrap;html=1;container=1;collapsible=0;absoluteArcSize=1;arcSize=20;childLayout=stackLayout;horizontal=1;horizontalStack=0;resizeParent=1;resizeParentMax=0;resizeLast=0;" parent="1" vertex="1">
          <mxGeometry x="490" y="40" width="120" height="100" as="geometry" />
        </mxCell>
        <mxCell id="-8ydR7LuJqTs1enXFbCZ-62" value="PriceAgent" style="whiteSpace=wrap;connectable=0;html=1;shape=mxgraph.basic.rect;size=10;rectStyle=rounded;bottomRightStyle=square;bottomLeftStyle=square;part=1;" parent="-8ydR7LuJqTs1enXFbCZ-61" vertex="1">
          <mxGeometry width="120" height="20" as="geometry" />
        </mxCell>
        <mxCell id="-8ydR7LuJqTs1enXFbCZ-63" value="Przygotuj raport odnośnie cen" style="shape=mxgraph.bpmn.task;part=1;taskMarker=abstract;connectable=0;whiteSpace=wrap;html=1;" parent="-8ydR7LuJqTs1enXFbCZ-61" vertex="1">
          <mxGeometry y="20" width="120" height="60" as="geometry" />
        </mxCell>
        <mxCell id="-8ydR7LuJqTs1enXFbCZ-64" value="Reporter" style="whiteSpace=wrap;connectable=0;html=1;shape=mxgraph.basic.rect;size=10;rectStyle=rounded;topRightStyle=square;topLeftStyle=square;fillColor=#C0C0C0;part=1;" parent="-8ydR7LuJqTs1enXFbCZ-61" vertex="1">
          <mxGeometry y="80" width="120" height="20" as="geometry" />
        </mxCell>
        <mxCell id="-8ydR7LuJqTs1enXFbCZ-67" style="edgeStyle=orthogonalEdgeStyle;rounded=0;orthogonalLoop=1;jettySize=auto;html=1;entryX=0;entryY=0.5;entryDx=0;entryDy=0;" parent="1" source="-8ydR7LuJqTs1enXFbCZ-48" target="-8ydR7LuJqTs1enXFbCZ-69" edge="1">
          <mxGeometry relative="1" as="geometry">
            <mxPoint x="485" y="220" as="targetPoint" />
          </mxGeometry>
        </mxCell>
        <mxCell id="-8ydR7LuJqTs1enXFbCZ-68" style="edgeStyle=orthogonalEdgeStyle;rounded=0;orthogonalLoop=1;jettySize=auto;html=1;entryX=0;entryY=0.5;entryDx=0;entryDy=0;" parent="1" source="-8ydR7LuJqTs1enXFbCZ-52" target="-8ydR7LuJqTs1enXFbCZ-73" edge="1">
          <mxGeometry relative="1" as="geometry">
            <mxPoint x="510" y="245" as="targetPoint" />
          </mxGeometry>
        </mxCell>
        <mxCell id="-8ydR7LuJqTs1enXFbCZ-69" value="" style="rounded=1;whiteSpace=wrap;html=1;container=1;collapsible=0;absoluteArcSize=1;arcSize=20;childLayout=stackLayout;horizontal=1;horizontalStack=0;resizeParent=1;resizeParentMax=0;resizeLast=0;" parent="1" vertex="1">
          <mxGeometry x="490" y="170" width="120" height="100" as="geometry" />
        </mxCell>
        <mxCell id="-8ydR7LuJqTs1enXFbCZ-70" value="DepartmentAgent" style="whiteSpace=wrap;connectable=0;html=1;shape=mxgraph.basic.rect;size=10;rectStyle=rounded;bottomRightStyle=square;bottomLeftStyle=square;part=1;" parent="-8ydR7LuJqTs1enXFbCZ-69" vertex="1">
          <mxGeometry width="120" height="20" as="geometry" />
        </mxCell>
        <mxCell id="-8ydR7LuJqTs1enXFbCZ-71" value="Przygotuj raport odnośnie zabudowań i inwestycji" style="shape=mxgraph.bpmn.task;part=1;taskMarker=abstract;connectable=0;whiteSpace=wrap;html=1;" parent="-8ydR7LuJqTs1enXFbCZ-69" vertex="1">
          <mxGeometry y="20" width="120" height="60" as="geometry" />
        </mxCell>
        <mxCell id="-8ydR7LuJqTs1enXFbCZ-72" value="Reporter" style="whiteSpace=wrap;connectable=0;html=1;shape=mxgraph.basic.rect;size=10;rectStyle=rounded;topRightStyle=square;topLeftStyle=square;fillColor=#C0C0C0;part=1;" parent="-8ydR7LuJqTs1enXFbCZ-69" vertex="1">
          <mxGeometry y="80" width="120" height="20" as="geometry" />
        </mxCell>
        <mxCell id="-8ydR7LuJqTs1enXFbCZ-73" value="" style="rounded=1;whiteSpace=wrap;html=1;container=1;collapsible=0;absoluteArcSize=1;arcSize=20;childLayout=stackLayout;horizontal=1;horizontalStack=0;resizeParent=1;resizeParentMax=0;resizeLast=0;" parent="1" vertex="1">
          <mxGeometry x="490" y="310" width="120" height="100" as="geometry" />
        </mxCell>
        <mxCell id="-8ydR7LuJqTs1enXFbCZ-74" value="ServiceOpinionAgent" style="whiteSpace=wrap;connectable=0;html=1;shape=mxgraph.basic.rect;size=10;rectStyle=rounded;bottomRightStyle=square;bottomLeftStyle=square;part=1;" parent="-8ydR7LuJqTs1enXFbCZ-73" vertex="1">
          <mxGeometry width="120" height="20" as="geometry" />
        </mxCell>
        <mxCell id="-8ydR7LuJqTs1enXFbCZ-75" value="Przygotuj raport odnośnie usług i placówek w okolicy" style="shape=mxgraph.bpmn.task;part=1;taskMarker=abstract;connectable=0;whiteSpace=wrap;html=1;" parent="-8ydR7LuJqTs1enXFbCZ-73" vertex="1">
          <mxGeometry y="20" width="120" height="60" as="geometry" />
        </mxCell>
        <mxCell id="-8ydR7LuJqTs1enXFbCZ-76" value="Reporter" style="whiteSpace=wrap;connectable=0;html=1;shape=mxgraph.basic.rect;size=10;rectStyle=rounded;topRightStyle=square;topLeftStyle=square;fillColor=#C0C0C0;part=1;" parent="-8ydR7LuJqTs1enXFbCZ-73" vertex="1">
          <mxGeometry y="80" width="120" height="20" as="geometry" />
        </mxCell>
        <mxCell id="-8ydR7LuJqTs1enXFbCZ-92" style="edgeStyle=orthogonalEdgeStyle;rounded=0;orthogonalLoop=1;jettySize=auto;html=1;entryX=0;entryY=0.5;entryDx=0;entryDy=0;" parent="1" source="-8ydR7LuJqTs1enXFbCZ-84" target="-8ydR7LuJqTs1enXFbCZ-88" edge="1">
          <mxGeometry relative="1" as="geometry">
            <mxPoint x="790" y="220" as="targetPoint" />
          </mxGeometry>
        </mxCell>
        <mxCell id="-8ydR7LuJqTs1enXFbCZ-84" value="" style="points=[[0.25,0.25,0],[0.5,0,0],[0.75,0.25,0],[1,0.5,0],[0.75,0.75,0],[0.5,1,0],[0.25,0.75,0],[0,0.5,0]];shape=mxgraph.bpmn.gateway2;html=1;verticalLabelPosition=bottom;labelBackgroundColor=#ffffff;verticalAlign=top;align=center;perimeter=rhombusPerimeter;outlineConnect=0;outline=none;symbol=none;gwType=parallel;" parent="1" vertex="1">
          <mxGeometry x="700" y="195" width="50" height="50" as="geometry" />
        </mxCell>
        <mxCell id="-8ydR7LuJqTs1enXFbCZ-86" style="edgeStyle=orthogonalEdgeStyle;rounded=0;orthogonalLoop=1;jettySize=auto;html=1;entryX=0;entryY=0.5;entryDx=0;entryDy=0;entryPerimeter=0;" parent="1" source="-8ydR7LuJqTs1enXFbCZ-69" target="-8ydR7LuJqTs1enXFbCZ-84" edge="1">
          <mxGeometry relative="1" as="geometry" />
        </mxCell>
        <mxCell id="-8ydR7LuJqTs1enXFbCZ-87" style="edgeStyle=orthogonalEdgeStyle;rounded=0;orthogonalLoop=1;jettySize=auto;html=1;entryX=0.5;entryY=1;entryDx=0;entryDy=0;entryPerimeter=0;" parent="1" source="-8ydR7LuJqTs1enXFbCZ-73" target="-8ydR7LuJqTs1enXFbCZ-84" edge="1">
          <mxGeometry relative="1" as="geometry" />
        </mxCell>
        <mxCell id="-8ydR7LuJqTs1enXFbCZ-88" value="" style="rounded=1;whiteSpace=wrap;html=1;container=1;collapsible=0;absoluteArcSize=1;arcSize=20;childLayout=stackLayout;horizontal=1;horizontalStack=0;resizeParent=1;resizeParentMax=0;resizeLast=0;" parent="1" vertex="1">
          <mxGeometry x="800" y="170" width="120" height="100" as="geometry" />
        </mxCell>
        <mxCell id="-8ydR7LuJqTs1enXFbCZ-89" value="Reporter" style="whiteSpace=wrap;connectable=0;html=1;shape=mxgraph.basic.rect;size=10;rectStyle=rounded;bottomRightStyle=square;bottomLeftStyle=square;part=1;" parent="-8ydR7LuJqTs1enXFbCZ-88" vertex="1">
          <mxGeometry width="120" height="20" as="geometry" />
        </mxCell>
        <mxCell id="-8ydR7LuJqTs1enXFbCZ-90" value="Przygotuj raport końcowy" style="shape=mxgraph.bpmn.task;part=1;taskMarker=abstract;connectable=0;whiteSpace=wrap;html=1;" parent="-8ydR7LuJqTs1enXFbCZ-88" vertex="1">
          <mxGeometry y="20" width="120" height="60" as="geometry" />
        </mxCell>
        <mxCell id="-8ydR7LuJqTs1enXFbCZ-91" value="Client" style="whiteSpace=wrap;connectable=0;html=1;shape=mxgraph.basic.rect;size=10;rectStyle=rounded;topRightStyle=square;topLeftStyle=square;fillColor=#C0C0C0;part=1;" parent="-8ydR7LuJqTs1enXFbCZ-88" vertex="1">
          <mxGeometry y="80" width="120" height="20" as="geometry" />
        </mxCell>
        <mxCell id="-8ydR7LuJqTs1enXFbCZ-93" style="edgeStyle=orthogonalEdgeStyle;rounded=0;orthogonalLoop=1;jettySize=auto;html=1;entryX=0;entryY=0.5;entryDx=0;entryDy=0;entryPerimeter=0;" parent="1" source="-8ydR7LuJqTs1enXFbCZ-88" target="-8ydR7LuJqTs1enXFbCZ-37" edge="1">
          <mxGeometry relative="1" as="geometry" />
        </mxCell>
      </root>
    </mxGraphModel>
  </diagram>
</mxfile>
